<svg width="138" height="110" viewBox="0 0 138 110" fill="none" xmlns="http://www.w3.org/2000/svg">
<g clip-path="url(#clip0)">
<path opacity="0.1" d="M39.6435 18.8654H29.2917C28.6946 18.8654 28.2106 19.3482 28.2106 19.9437V21.5603C28.2106 22.1558 28.6946 22.6385 29.2917 22.6385H39.6435C40.2406 22.6385 40.7247 22.1558 40.7247 21.5603V19.9437C40.7247 19.3482 40.2406 18.8654 39.6435 18.8654Z" fill="#FFD89B"/>
<path opacity="0.1" d="M52.7397 22.6385H42.3879C41.7908 22.6385 41.3067 23.1213 41.3067 23.7168V25.3334C41.3067 25.9289 41.7908 26.4116 42.3879 26.4116H52.7397C53.3368 26.4116 53.8208 25.9289 53.8208 25.3334V23.7168C53.8208 23.1213 53.3368 22.6385 52.7397 22.6385Z" fill="#FFD89B"/>
<path opacity="0.1" d="M65.8358 26.4116H55.4841C54.8869 26.4116 54.4029 26.8943 54.4029 27.4898V29.1065C54.4029 29.7019 54.8869 30.1847 55.4841 30.1847H65.8358C66.4329 30.1847 66.917 29.7019 66.917 29.1065V27.4898C66.917 26.8943 66.4329 26.4116 65.8358 26.4116Z" fill="#FFD89B"/>
<path opacity="0.1" d="M39.6435 13.2058H29.2917C28.6946 13.2058 28.2106 13.6885 28.2106 14.284V15.9007C28.2106 16.4962 28.6946 16.9789 29.2917 16.9789H39.6435C40.2406 16.9789 40.7247 16.4962 40.7247 15.9007V14.284C40.7247 13.6885 40.2406 13.2058 39.6435 13.2058Z" fill="#FFD89B"/>
<path opacity="0.1" d="M52.7397 16.9789H42.3879C41.7908 16.9789 41.3067 17.4616 41.3067 18.0571V19.6737C41.3067 20.2692 41.7908 20.752 42.3879 20.752H52.7397C53.3368 20.752 53.8208 20.2692 53.8208 19.6737V18.0571C53.8208 17.4616 53.3368 16.9789 52.7397 16.9789Z" fill="#FFD89B"/>
<path opacity="0.1" d="M65.8358 20.752H55.4841C54.8869 20.752 54.4029 21.2347 54.4029 21.8302V23.4468C54.4029 24.0423 54.8869 24.5251 55.4841 24.5251H65.8358C66.4329 24.5251 66.917 24.0423 66.917 23.4468V21.8302C66.917 21.2347 66.4329 20.752 65.8358 20.752Z" fill="#FFD89B"/>
<path opacity="0.1" d="M80.3871 18.8654H70.0353C69.4382 18.8654 68.9542 19.3482 68.9542 19.9437V21.5603C68.9542 22.1558 69.4382 22.6385 70.0353 22.6385H80.3871C80.9842 22.6385 81.4683 22.1558 81.4683 21.5603V19.9437C81.4683 19.3482 80.9842 18.8654 80.3871 18.8654Z" fill="#FFD89B"/>
<path opacity="0.1" d="M93.4833 22.6385H83.1315C82.5344 22.6385 82.0503 23.1213 82.0503 23.7168V25.3334C82.0503 25.9289 82.5344 26.4116 83.1315 26.4116H93.4833C94.0804 26.4116 94.5644 25.9289 94.5644 25.3334V23.7168C94.5644 23.1213 94.0804 22.6385 93.4833 22.6385Z" fill="#FFD89B"/>
<path opacity="0.1" d="M106.579 26.4116H96.2276C95.6305 26.4116 95.1465 26.8943 95.1465 27.4898V29.1065C95.1465 29.7019 95.6305 30.1847 96.2276 30.1847H106.579C107.177 30.1847 107.661 29.7019 107.661 29.1065V27.4898C107.661 26.8943 107.177 26.4116 106.579 26.4116Z" fill="#FFD89B"/>
<path opacity="0.1" d="M80.3871 13.2058H70.0353C69.4382 13.2058 68.9542 13.6885 68.9542 14.284V15.9007C68.9542 16.4962 69.4382 16.9789 70.0353 16.9789H80.3871C80.9842 16.9789 81.4683 16.4962 81.4683 15.9007V14.284C81.4683 13.6885 80.9842 13.2058 80.3871 13.2058Z" fill="#FFD89B"/>
<path opacity="0.1" d="M93.4833 16.9789H83.1315C82.5344 16.9789 82.0503 17.4616 82.0503 18.0571V19.6737C82.0503 20.2692 82.5344 20.752 83.1315 20.752H93.4833C94.0804 20.752 94.5644 20.2692 94.5644 19.6737V18.0571C94.5644 17.4616 94.0804 16.9789 93.4833 16.9789Z" fill="#FFD89B"/>
<path opacity="0.1" d="M106.579 20.752H96.2276C95.6305 20.752 95.1465 21.2347 95.1465 21.8302V23.4468C95.1465 24.0423 95.6305 24.5251 96.2276 24.5251H106.579C107.177 24.5251 107.661 24.0423 107.661 23.4468V21.8302C107.661 21.2347 107.177 20.752 106.579 20.752Z" fill="#FFD89B"/>
<path opacity="0.1" d="M39.6435 5.65963H29.2917C28.6946 5.65963 28.2106 6.14237 28.2106 6.73786V8.35449C28.2106 8.94998 28.6946 9.43272 29.2917 9.43272H39.6435C40.2406 9.43272 40.7247 8.94998 40.7247 8.35449V6.73786C40.7247 6.14237 40.2406 5.65963 39.6435 5.65963Z" fill="#FFD89B"/>
<path opacity="0.1" d="M52.7397 9.43272H42.3879C41.7908 9.43272 41.3067 9.91546 41.3067 10.511V12.1276C41.3067 12.7231 41.7908 13.2058 42.3879 13.2058H52.7397C53.3368 13.2058 53.8208 12.7231 53.8208 12.1276V10.511C53.8208 9.91546 53.3368 9.43272 52.7397 9.43272Z" fill="#FFD89B"/>
<path opacity="0.1" d="M65.8358 13.2058H55.4841C54.8869 13.2058 54.4029 13.6885 54.4029 14.284V15.9007C54.4029 16.4962 54.8869 16.9789 55.4841 16.9789H65.8358C66.4329 16.9789 66.917 16.4962 66.917 15.9007V14.284C66.917 13.6885 66.4329 13.2058 65.8358 13.2058Z" fill="#FFD89B"/>
<path opacity="0.1" d="M39.6435 0H29.2917C28.6946 0 28.2106 0.482741 28.2106 1.07823V2.69485C28.2106 3.29034 28.6946 3.77309 29.2917 3.77309H39.6435C40.2406 3.77309 40.7247 3.29034 40.7247 2.69485V1.07823C40.7247 0.482741 40.2406 0 39.6435 0Z" fill="#FFD89B"/>
<path opacity="0.1" d="M52.7397 3.77309H42.3879C41.7908 3.77309 41.3067 4.25583 41.3067 4.85132V6.46794C41.3067 7.06343 41.7908 7.54617 42.3879 7.54617H52.7397C53.3368 7.54617 53.8208 7.06343 53.8208 6.46794V4.85132C53.8208 4.25583 53.3368 3.77309 52.7397 3.77309Z" fill="#FFD89B"/>
<path opacity="0.1" d="M65.8358 7.54617H55.4841C54.8869 7.54617 54.4029 8.02891 54.4029 8.6244V10.241C54.4029 10.8365 54.8869 11.3193 55.4841 11.3193H65.8358C66.4329 11.3193 66.917 10.8365 66.917 10.241V8.6244C66.917 8.02891 66.4329 7.54617 65.8358 7.54617Z" fill="#FFD89B"/>
<path opacity="0.1" d="M80.3871 5.65963H70.0353C69.4382 5.65963 68.9542 6.14237 68.9542 6.73786V8.35449C68.9542 8.94998 69.4382 9.43272 70.0353 9.43272H80.3871C80.9842 9.43272 81.4683 8.94998 81.4683 8.35449V6.73786C81.4683 6.14237 80.9842 5.65963 80.3871 5.65963Z" fill="#FFD89B"/>
<path opacity="0.1" d="M93.4833 9.43272H83.1315C82.5344 9.43272 82.0503 9.91546 82.0503 10.511V12.1276C82.0503 12.7231 82.5344 13.2058 83.1315 13.2058H93.4833C94.0804 13.2058 94.5644 12.7231 94.5644 12.1276V10.511C94.5644 9.91546 94.0804 9.43272 93.4833 9.43272Z" fill="#FFD89B"/>
<path opacity="0.1" d="M106.579 13.2058H96.2276C95.6305 13.2058 95.1465 13.6885 95.1465 14.284V15.9007C95.1465 16.4962 95.6305 16.9789 96.2276 16.9789H106.579C107.177 16.9789 107.661 16.4962 107.661 15.9007V14.284C107.661 13.6885 107.177 13.2058 106.579 13.2058Z" fill="#FFD89B"/>
<path opacity="0.1" d="M80.3871 0H70.0353C69.4382 0 68.9542 0.482741 68.9542 1.07823V2.69485C68.9542 3.29034 69.4382 3.77309 70.0353 3.77309H80.3871C80.9842 3.77309 81.4683 3.29034 81.4683 2.69485V1.07823C81.4683 0.482741 80.9842 0 80.3871 0Z" fill="#FFD89B"/>
<path opacity="0.1" d="M93.4833 3.77309H83.1315C82.5344 3.77309 82.0503 4.25583 82.0503 4.85132V6.46794C82.0503 7.06343 82.5344 7.54617 83.1315 7.54617H93.4833C94.0804 7.54617 94.5644 7.06343 94.5644 6.46794V4.85132C94.5644 4.25583 94.0804 3.77309 93.4833 3.77309Z" fill="#FFD89B"/>
<path opacity="0.1" d="M106.579 7.54617H96.2276C95.6305 7.54617 95.1465 8.02891 95.1465 8.6244V10.241C95.1465 10.8365 95.6305 11.3193 96.2276 11.3193H106.579C107.177 11.3193 107.661 10.8365 107.661 10.241V8.6244C107.661 8.02891 107.177 7.54617 106.579 7.54617Z" fill="#FFD89B"/>
<path opacity="0.1" d="M39.6435 86.0554H29.2917C28.6946 86.0554 28.2106 86.5381 28.2106 87.1336V88.7503C28.2106 89.3458 28.6946 89.8285 29.2917 89.8285H39.6435C40.2406 89.8285 40.7247 89.3458 40.7247 88.7503V87.1336C40.7247 86.5381 40.2406 86.0554 39.6435 86.0554Z" fill="#FFD89B"/>
<path opacity="0.1" d="M52.7397 89.8285H42.3879C41.7908 89.8285 41.3067 90.3112 41.3067 90.9067V92.5234C41.3067 93.1188 41.7908 93.6016 42.3879 93.6016H52.7397C53.3368 93.6016 53.8208 93.1188 53.8208 92.5234V90.9067C53.8208 90.3112 53.3368 89.8285 52.7397 89.8285Z" fill="#FFD89B"/>
<path opacity="0.1" d="M65.8358 93.6016H55.4841C54.8869 93.6016 54.4029 94.0843 54.4029 94.6798V96.2964C54.4029 96.8919 54.8869 97.3747 55.4841 97.3747H65.8358C66.4329 97.3747 66.917 96.8919 66.917 96.2964V94.6798C66.917 94.0843 66.4329 93.6016 65.8358 93.6016Z" fill="#FFD89B"/>
<path opacity="0.1" d="M39.6435 80.3958H29.2917C28.6946 80.3958 28.2106 80.8785 28.2106 81.474V83.0906C28.2106 83.6861 28.6946 84.1689 29.2917 84.1689H39.6435C40.2406 84.1689 40.7247 83.6861 40.7247 83.0906V81.474C40.7247 80.8785 40.2406 80.3958 39.6435 80.3958Z" fill="#FFD89B"/>
<path opacity="0.1" d="M52.7397 84.1689H42.3879C41.7908 84.1689 41.3067 84.6516 41.3067 85.2471V86.8637C41.3067 87.4592 41.7908 87.9419 42.3879 87.9419H52.7397C53.3368 87.9419 53.8208 87.4592 53.8208 86.8637V85.2471C53.8208 84.6516 53.3368 84.1689 52.7397 84.1689Z" fill="#FFD89B"/>
<path opacity="0.1" d="M65.8358 87.9419H55.4841C54.8869 87.9419 54.4029 88.4247 54.4029 89.0202V90.6368C54.4029 91.2323 54.8869 91.715 55.4841 91.715H65.8358C66.4329 91.715 66.917 91.2323 66.917 90.6368V89.0202C66.917 88.4247 66.4329 87.9419 65.8358 87.9419Z" fill="#FFD89B"/>
<path opacity="0.1" d="M80.3871 86.0554H70.0353C69.4382 86.0554 68.9542 86.5381 68.9542 87.1336V88.7503C68.9542 89.3458 69.4382 89.8285 70.0353 89.8285H80.3871C80.9842 89.8285 81.4683 89.3458 81.4683 88.7503V87.1336C81.4683 86.5381 80.9842 86.0554 80.3871 86.0554Z" fill="#FFD89B"/>
<path opacity="0.1" d="M93.4833 89.8285H83.1315C82.5344 89.8285 82.0503 90.3112 82.0503 90.9067V92.5234C82.0503 93.1188 82.5344 93.6016 83.1315 93.6016H93.4833C94.0804 93.6016 94.5644 93.1188 94.5644 92.5234V90.9067C94.5644 90.3112 94.0804 89.8285 93.4833 89.8285Z" fill="#FFD89B"/>
<path opacity="0.1" d="M106.579 93.6016H96.2276C95.6305 93.6016 95.1465 94.0843 95.1465 94.6798V96.2964C95.1465 96.8919 95.6305 97.3747 96.2276 97.3747H106.579C107.177 97.3747 107.661 96.8919 107.661 96.2964V94.6798C107.661 94.0843 107.177 93.6016 106.579 93.6016Z" fill="#FFD89B"/>
<path opacity="0.1" d="M80.3871 80.3958H70.0353C69.4382 80.3958 68.9542 80.8785 68.9542 81.474V83.0906C68.9542 83.6861 69.4382 84.1689 70.0353 84.1689H80.3871C80.9842 84.1689 81.4683 83.6861 81.4683 83.0906V81.474C81.4683 80.8785 80.9842 80.3958 80.3871 80.3958Z" fill="#FFD89B"/>
<path opacity="0.1" d="M93.4833 84.1689H83.1315C82.5344 84.1689 82.0503 84.6516 82.0503 85.2471V86.8637C82.0503 87.4592 82.5344 87.9419 83.1315 87.9419H93.4833C94.0804 87.9419 94.5644 87.4592 94.5644 86.8637V85.2471C94.5644 84.6516 94.0804 84.1689 93.4833 84.1689Z" fill="#FFD89B"/>
<path opacity="0.1" d="M106.579 87.9419H96.2276C95.6305 87.9419 95.1465 88.4247 95.1465 89.0202V90.6368C95.1465 91.2323 95.6305 91.715 96.2276 91.715H106.579C107.177 91.715 107.661 91.2323 107.661 90.6368V89.0202C107.661 88.4247 107.177 87.9419 106.579 87.9419Z" fill="#FFD89B"/>
<path opacity="0.1" d="M39.6435 72.8496H29.2917C28.6946 72.8496 28.2106 73.3323 28.2106 73.9278V75.5445C28.2106 76.1399 28.6946 76.6227 29.2917 76.6227H39.6435C40.2406 76.6227 40.7247 76.1399 40.7247 75.5445V73.9278C40.7247 73.3323 40.2406 72.8496 39.6435 72.8496Z" fill="#FFD89B"/>
<path opacity="0.1" d="M52.7397 76.6227H42.3879C41.7908 76.6227 41.3067 77.1054 41.3067 77.7009V79.3175C41.3067 79.913 41.7908 80.3958 42.3879 80.3958H52.7397C53.3368 80.3958 53.8208 79.913 53.8208 79.3175V77.7009C53.8208 77.1054 53.3368 76.6227 52.7397 76.6227Z" fill="#FFD89B"/>
<path opacity="0.1" d="M65.8358 80.3958H55.4841C54.8869 80.3958 54.4029 80.8785 54.4029 81.474V83.0906C54.4029 83.6861 54.8869 84.1689 55.4841 84.1689H65.8358C66.4329 84.1689 66.917 83.6861 66.917 83.0906V81.474C66.917 80.8785 66.4329 80.3958 65.8358 80.3958Z" fill="#FFD89B"/>
<path opacity="0.1" d="M39.6435 67.1899H29.2917C28.6946 67.1899 28.2106 67.6727 28.2106 68.2682V69.8848C28.2106 70.4803 28.6946 70.9631 29.2917 70.9631H39.6435C40.2406 70.9631 40.7247 70.4803 40.7247 69.8848V68.2682C40.7247 67.6727 40.2406 67.1899 39.6435 67.1899Z" fill="#FFD89B"/>
<path opacity="0.1" d="M52.7397 70.9631H42.3879C41.7908 70.9631 41.3067 71.4458 41.3067 72.0413V73.6579C41.3067 74.2534 41.7908 74.7361 42.3879 74.7361H52.7397C53.3368 74.7361 53.8208 74.2534 53.8208 73.6579V72.0413C53.8208 71.4458 53.3368 70.9631 52.7397 70.9631Z" fill="#FFD89B"/>
<path opacity="0.1" d="M65.8358 74.7361H55.4841C54.8869 74.7361 54.4029 75.2189 54.4029 75.8144V77.431C54.4029 78.0265 54.8869 78.5092 55.4841 78.5092H65.8358C66.4329 78.5092 66.917 78.0265 66.917 77.431V75.8144C66.917 75.2189 66.4329 74.7361 65.8358 74.7361Z" fill="#FFD89B"/>
<path opacity="0.1" d="M80.3871 72.8496H70.0353C69.4382 72.8496 68.9542 73.3323 68.9542 73.9278V75.5445C68.9542 76.1399 69.4382 76.6227 70.0353 76.6227H80.3871C80.9842 76.6227 81.4683 76.1399 81.4683 75.5445V73.9278C81.4683 73.3323 80.9842 72.8496 80.3871 72.8496Z" fill="#FFD89B"/>
<path opacity="0.1" d="M93.4833 76.6227H83.1315C82.5344 76.6227 82.0503 77.1054 82.0503 77.7009V79.3175C82.0503 79.913 82.5344 80.3958 83.1315 80.3958H93.4833C94.0804 80.3958 94.5644 79.913 94.5644 79.3175V77.7009C94.5644 77.1054 94.0804 76.6227 93.4833 76.6227Z" fill="#FFD89B"/>
<path opacity="0.1" d="M106.579 80.3958H96.2276C95.6305 80.3958 95.1465 80.8785 95.1465 81.474V83.0906C95.1465 83.6861 95.6305 84.1689 96.2276 84.1689H106.579C107.177 84.1689 107.661 83.6861 107.661 83.0906V81.474C107.661 80.8785 107.177 80.3958 106.579 80.3958Z" fill="#FFD89B"/>
<path opacity="0.1" d="M80.3871 67.1899H70.0353C69.4382 67.1899 68.9542 67.6727 68.9542 68.2682V69.8848C68.9542 70.4803 69.4382 70.9631 70.0353 70.9631H80.3871C80.9842 70.9631 81.4683 70.4803 81.4683 69.8848V68.2682C81.4683 67.6727 80.9842 67.1899 80.3871 67.1899Z" fill="#FFD89B"/>
<path opacity="0.1" d="M93.4833 70.9631H83.1315C82.5344 70.9631 82.0503 71.4458 82.0503 72.0413V73.6579C82.0503 74.2534 82.5344 74.7361 83.1315 74.7361H93.4833C94.0804 74.7361 94.5644 74.2534 94.5644 73.6579V72.0413C94.5644 71.4458 94.0804 70.9631 93.4833 70.9631Z" fill="#FFD89B"/>
<path opacity="0.1" d="M106.579 74.7361H96.2276C95.6305 74.7361 95.1465 75.2189 95.1465 75.8144V77.431C95.1465 78.0265 95.6305 78.5092 96.2276 78.5092H106.579C107.177 78.5092 107.661 78.0265 107.661 77.431V75.8144C107.661 75.2189 107.177 74.7361 106.579 74.7361Z" fill="#FFD89B"/>
<path opacity="0.1" d="M70.191 110C105.431 110 133.998 107.661 133.998 104.776C133.998 101.89 105.431 99.5515 70.191 99.5515C34.9512 99.5515 6.38365 101.89 6.38365 104.776C6.38365 107.661 34.9512 110 70.191 110Z" fill="#FFD89B"/>
<path d="M12.3177 27.1082C18.3346 29.7087 21.792 35.0897 21.792 35.0897C21.792 35.0897 15.4927 36.2507 9.47434 33.6516C3.45593 31.0525 0 25.6701 0 25.6701C0 25.6701 6.29925 24.5077 12.3177 27.1082Z" fill="#FFD89B"/>
<path d="M30.7832 17.124C32.6443 14.0765 35.8136 12.6253 35.8136 12.6253C35.8136 12.6253 35.9591 16.0995 34.1038 19.1383C32.2485 22.177 29.072 23.6268 29.072 23.6268C29.072 23.6268 28.9207 20.1541 30.7832 17.124Z" fill="#FFD89B"/>
<path d="M17.1021 20.3848C18.4336 25.1244 22.1034 28.2444 22.1034 28.2444C22.1034 28.2444 23.6153 23.6776 22.2838 18.9365C20.9524 14.1955 17.2811 11.0769 17.2811 11.0769C17.2811 11.0769 15.7692 15.6438 17.1021 20.3848Z" fill="#46455B"/>
<path d="M122.327 20.1715H18.3463C17.7668 20.1715 17.2971 20.64 17.2971 21.2178V72.0935C17.2971 72.6714 17.7668 73.1398 18.3463 73.1398H122.327C122.906 73.1398 123.376 72.6714 123.376 72.0935V21.2178C123.376 20.64 122.906 20.1715 122.327 20.1715Z" fill="#3F3D56"/>
<path opacity="0.1" d="M17.2971 69.9472H123.376V72.0935C123.376 72.371 123.265 72.6372 123.069 72.8334C122.872 73.0296 122.605 73.1398 122.327 73.1398H18.3463C18.068 73.1398 17.8012 73.0296 17.6044 72.8334C17.4077 72.6372 17.2971 72.371 17.2971 72.0935V69.9472Z" fill="black"/>
<path d="M35.1224 66.029H27.9923C27.7914 66.029 27.6285 66.1915 27.6285 66.3918V69.5844C27.6285 69.7848 27.7914 69.9472 27.9923 69.9472H35.1224C35.3233 69.9472 35.4862 69.7848 35.4862 69.5844V66.3918C35.4862 66.1915 35.3233 66.029 35.1224 66.029Z" fill="#FFD89B"/>
<path d="M42.7618 69.3667H37.9599C37.7992 69.3667 37.6689 69.4967 37.6689 69.657C37.6689 69.8173 37.7992 69.9472 37.9599 69.9472H42.7618C42.9226 69.9472 43.0529 69.8173 43.0529 69.657C43.0529 69.4967 42.9226 69.3667 42.7618 69.3667Z" fill="#FFD89B"/>
<path d="M32.8888 30.5301C36.7289 31.2368 40.6461 30.5301 44.4702 30.0512L56.0923 28.6C56.5623 28.5405 57.2462 28.2604 57.5227 28.8337C57.6784 29.1544 57.5736 29.8495 57.5853 30.2181C57.6158 31.2339 57.6129 32.2498 57.5853 33.2656C57.5329 35.2073 57.3903 37.1446 57.2084 39.0776C56.8548 42.8608 56.3542 46.6238 56.1039 50.4215C55.9759 52.3545 55.9119 54.2933 55.9686 56.2263C55.9817 56.6877 56.0006 57.1492 56.0283 57.6092C56.0588 58.1244 56.2902 58.8892 55.7271 59.2331C55.4055 59.4305 54.7725 59.4203 54.4043 59.4784C53.8223 59.5698 53.2402 59.6424 52.6465 59.7019C48.7337 60.0922 44.7699 59.9297 40.8425 59.9065L28.9832 59.8455L26.0904 59.8296C25.8285 59.8296 24.8841 59.9863 24.7226 59.6757C24.6542 59.5437 24.8361 58.9255 24.8681 58.76C24.9128 58.4872 24.9613 58.2149 25.0137 57.943C25.3512 56.0347 25.7499 54.138 26.1516 52.2428C27.0145 48.1794 27.8977 44.0958 28.2528 39.9454C28.4288 37.8629 28.3124 35.7616 28.5278 33.6835C28.6282 32.7185 28.7475 30.5649 30.0353 30.4793C31.1267 30.4067 32.25 30.4793 33.3443 30.4793C33.4022 30.4793 33.4577 30.4564 33.4986 30.4155C33.5395 30.3747 33.5625 30.3194 33.5625 30.2616C33.5625 30.2039 33.5395 30.1485 33.4986 30.1077C33.4577 30.0669 33.4022 30.0439 33.3443 30.0439C32.3111 30.0439 31.2765 30.0164 30.2434 30.0367C29.5566 30.0498 29.0793 30.2123 28.7519 30.8421C27.9152 32.4587 28.001 34.6152 27.9748 36.3798C27.9123 40.6042 27.2618 44.7387 26.4149 48.8702C25.9886 50.9497 25.5288 53.022 25.1053 55.103C24.906 56.0971 24.7154 57.0941 24.5407 58.0939C24.4592 58.5699 24.0474 59.6191 24.4098 60.0559C24.7721 60.4928 25.8867 60.2577 26.3858 60.2606L29.8578 60.2809L36.5106 60.3186C40.8091 60.3433 45.1221 60.4637 49.4191 60.3375C51.4708 60.2765 53.639 60.1924 55.6368 59.7033C56.232 59.5582 56.5187 59.2854 56.5419 58.6527C56.5769 57.6716 56.4168 56.6602 56.3964 55.6748C56.2509 47.2434 58.2372 38.9296 58.0334 30.4953C58.0203 29.922 58.2372 28.4767 57.6085 28.1298C57.3262 27.9731 56.9595 28.0587 56.6627 28.0935C56.0952 28.1589 55.5292 28.2387 54.9617 28.3054L47.5914 29.2226C45.2356 29.5128 42.8812 29.8263 40.521 30.0933C38.0225 30.3835 35.4993 30.5562 33.0096 30.0933C32.7346 30.0425 32.6167 30.4619 32.8932 30.5127L32.8888 30.5301Z" fill="#FFD89B"/>
<path d="M28.2557 35.66L57.3321 34.2379C57.6129 34.2234 57.6144 33.788 57.3321 33.8025L28.2557 35.2247C27.9763 35.2377 27.9748 35.6731 28.2557 35.66Z" fill="#FFD89B"/>
<path d="M37.2135 32.0712C37.1321 32.1572 37.0731 32.2616 37.0415 32.3755C37.0098 32.4894 37.0066 32.6092 37.032 32.7247C37.0573 32.8401 37.1106 32.9476 37.1871 33.0378C37.2636 33.128 37.3611 33.1982 37.471 33.2423C37.8624 33.4208 38.3223 33.2714 38.7108 33.1741C39.2928 33.029 39.8749 32.8999 40.4729 32.7939C41.7746 32.5641 43.0931 32.4418 44.4149 32.4282C45.0173 32.421 45.6154 32.4485 46.2178 32.4747C46.6543 32.4921 47.1243 32.5269 47.4939 32.257C47.9159 31.9493 48.0527 31.3486 47.6394 30.9741C47.0574 30.4445 45.8031 30.7521 45.1308 30.8073C42.6914 31.0094 40.2678 31.37 37.8755 31.8869C37.602 31.945 37.7169 32.3658 37.9919 32.3063C39.5703 31.9668 41.1607 31.6939 42.7633 31.4879C43.551 31.3911 44.3402 31.3094 45.1308 31.2426C45.5033 31.2121 45.8758 31.1846 46.2483 31.1628C46.3939 31.1541 46.5481 31.1381 46.6965 31.1425C47.1578 31.1526 47.2116 31.0699 46.9352 31.6257C46.6892 32.1177 46.7678 32.0611 46.3415 32.0451C46.161 32.0451 45.9806 32.0248 45.8002 32.0161C45.4306 32.0006 45.061 31.9924 44.6914 31.9914C43.9046 31.9914 43.1198 32.0292 42.337 32.1046C41.6734 32.1685 41.0113 32.2584 40.3551 32.3745C39.9447 32.4471 39.5373 32.5313 39.1313 32.6241C38.9523 32.6662 38.7719 32.7098 38.5929 32.7547C38.5071 32.778 38.4198 32.7983 38.3339 32.8201C38.0157 32.9303 37.7446 32.7852 37.5205 32.3847C37.7155 32.183 37.4084 31.8739 37.212 32.077L37.2135 32.0712Z" fill="#FFD89B"/>
<path d="M42.4839 38.2649C40.3784 38.1836 38.104 38.7511 36.7173 40.4417C35.6317 41.7637 35.0133 44.0319 36.1629 45.5208C37.3983 47.1172 40.1077 46.8356 41.7418 46.155C43.4705 45.4294 45.3622 43.9332 45.8817 42.0612C46.5292 39.7233 44.4265 37.9558 42.2366 37.9297C41.9557 37.9297 41.9557 38.365 42.2366 38.365C43.4851 38.3795 44.7103 38.9136 45.2923 40.0731C45.902 41.295 45.3767 42.5778 44.5648 43.5559C43.2639 45.1131 41.2296 46.2871 39.1575 46.2537C37.9134 46.2348 36.5383 45.8096 36.1527 44.5007C35.8355 43.4398 36.077 42.2803 36.63 41.34C37.8261 39.3083 40.2605 38.6204 42.4927 38.7075C42.7735 38.7177 42.7735 38.2823 42.4927 38.2722L42.4839 38.2649Z" fill="#FFD89B"/>
<path d="M40.3929 41.4894C40.3031 41.4563 40.2064 41.4463 40.1117 41.4604C40.017 41.4745 39.9275 41.5123 39.8514 41.5703C39.7753 41.6282 39.7151 41.7044 39.6765 41.7918C39.6378 41.8791 39.622 41.9748 39.6304 42.0699C39.6741 42.6359 40.2998 42.7955 40.7698 42.7621C41.1758 42.7273 41.6501 42.5778 41.5075 42.0714C41.4813 41.9817 41.436 41.8988 41.3747 41.8282C41.3135 41.7575 41.2377 41.7009 41.1525 41.6621C41.0223 41.6106 40.881 41.5931 40.7421 41.6113C40.6883 41.6113 40.195 41.7913 40.4045 41.5751L40.0611 41.5301C40.0992 41.5676 40.1284 41.6131 40.1466 41.6633C40.1647 41.7136 40.1713 41.7672 40.1659 41.8203C40.1666 41.8582 40.1771 41.8953 40.1964 41.928C40.2158 41.9607 40.2433 41.9878 40.2763 42.0066C40.3093 42.0255 40.3466 42.0355 40.3847 42.0357C40.4227 42.0358 40.4602 42.0261 40.4933 42.0075C40.5432 41.9867 40.598 41.9801 40.6514 41.9886C40.7049 41.9971 40.7549 42.0203 40.7959 42.0556C40.8368 42.0908 40.8671 42.1368 40.8833 42.1883C40.8996 42.2398 40.901 42.2948 40.8876 42.3471C40.8759 42.3974 40.8824 42.4501 40.9058 42.4961C40.9293 42.5421 40.9683 42.5784 41.016 42.5985C41.0637 42.6186 41.1169 42.6213 41.1664 42.6061C41.2158 42.5909 41.2583 42.5588 41.2863 42.5154C41.4319 42.2542 41.6079 41.7347 41.3897 41.4619C41.2441 41.2776 40.9633 41.3327 40.7887 41.4401C40.6809 41.5162 40.5806 41.6022 40.4889 41.697C40.3129 41.8522 40.1979 41.9248 40.2634 41.6273C40.3725 41.086 40.8906 40.655 41.3635 40.4388L41.0433 40.1935C40.8755 40.8225 40.5754 41.4087 40.163 41.9132L40.5355 42.067C40.5249 41.8678 40.5763 41.6701 40.6825 41.501C40.7888 41.3319 40.9448 41.1997 41.1292 41.1223H40.9153L41.0288 41.308C40.9866 41.5823 41.4071 41.6999 41.4493 41.4227C41.5046 41.0642 41.2776 40.5984 40.8571 40.774C40.3551 40.983 40.0946 41.5562 40.1048 42.067C40.1048 42.2412 40.3522 42.3761 40.4788 42.2223C40.9415 41.6616 41.2793 41.0091 41.4697 40.3082C41.4798 40.2666 41.4776 40.223 41.4633 40.1826C41.449 40.1423 41.4232 40.107 41.3891 40.081C41.355 40.055 41.3141 40.0394 41.2713 40.0362C41.2285 40.033 41.1857 40.0423 41.1481 40.0629C40.7122 40.2594 40.3438 40.5794 40.0888 40.983C39.9113 41.2732 39.6886 41.726 39.8691 42.0598C39.8986 42.1132 39.9385 42.1602 39.9864 42.1981C40.0344 42.236 40.0893 42.2641 40.1482 42.2807C40.2071 42.2973 40.2686 42.3021 40.3294 42.2948C40.3901 42.2875 40.4488 42.2683 40.502 42.2383C40.6366 42.1587 40.7595 42.061 40.8673 41.948C40.9211 41.9001 40.9808 41.8174 41.0521 41.8029C41.1161 41.7594 41.1132 41.784 41.0419 41.8798C41.0409 42.0302 40.997 42.1772 40.9153 42.3036L41.314 42.4704C41.3499 42.3349 41.3457 42.192 41.3019 42.0588C41.2581 41.9256 41.1766 41.808 41.0671 41.72C40.9577 41.6321 40.8251 41.5776 40.6853 41.5632C40.5455 41.5488 40.4045 41.5751 40.2794 41.6389L40.6083 41.8276C40.6151 41.6429 40.557 41.4617 40.4438 41.3153C40.4267 41.2871 40.4034 41.2631 40.3756 41.245C40.3479 41.227 40.3165 41.2154 40.2837 41.211C40.2509 41.2067 40.2175 41.2098 40.186 41.2201C40.1546 41.2303 40.1258 41.2475 40.1019 41.2703C39.8807 41.5011 39.8385 41.9001 40.1164 42.1135C40.3245 42.2716 40.4264 42.1135 40.6548 42.0772C41.4304 41.977 40.9779 42.3253 40.7043 42.3369C40.582 42.35 40.4583 42.3412 40.3391 42.3108C40.0354 42.2083 40.0165 42.0762 40.2823 41.9146C40.5428 42.0206 40.6548 41.5997 40.3987 41.4952L40.3929 41.4894Z" fill="#FFD89B"/>
<path d="M40.0422 42.2847C40.2212 42.8652 39.482 43.0567 39.1313 43.257C38.8852 43.3946 38.6706 43.5819 38.5012 43.807C38.1345 44.2975 37.9978 44.9215 37.877 45.5092C37.8217 45.7835 38.2422 45.8996 38.299 45.6253C38.3655 45.1934 38.4893 44.7723 38.6671 44.3729C38.929 43.8534 39.3045 43.6793 39.7934 43.4123C40.2823 43.1452 40.6359 42.7317 40.4627 42.1686C40.3813 41.9016 39.9593 42.0162 40.0422 42.2847Z" fill="#FFD89B"/>
<path d="M40.7698 41.993C40.6657 42.0074 40.5707 42.0599 40.5034 42.1405C40.4361 42.221 40.4014 42.3237 40.406 42.4284C40.406 42.6011 40.521 42.7113 40.5995 42.8492C40.7861 43.1313 40.9284 43.4401 41.0215 43.7649C41.0914 44.0769 41.1598 44.6356 40.9968 44.9259C40.6956 45.4642 40.1514 45.3612 39.6872 45.3612C39.2506 45.3612 38.913 45.5063 38.9276 44.8997C38.9363 44.5587 39.175 44.2133 39.3641 43.9449L38.9654 43.8926C39.0495 44.3357 39.0939 44.7854 39.0978 45.2364C39.0978 45.4381 39.4078 45.5499 39.5038 45.3452C39.7378 44.8545 39.9234 44.3422 40.0582 43.8157L39.629 43.7576L39.7046 44.8606C39.7059 44.9076 39.7223 44.953 39.7515 44.9901C39.7806 45.0271 39.821 45.0538 39.8665 45.0661C39.9121 45.0785 39.9604 45.0759 40.0044 45.0588C40.0484 45.0416 40.0856 45.0108 40.1106 44.9708C40.1616 44.9148 40.1989 44.8477 40.2198 44.7749C40.2343 44.7067 40.1004 44.2467 40.0466 44.4107L40.4744 44.4687L40.505 43.421L40.0684 43.479C40.1607 43.7745 40.1885 44.0862 40.1499 44.3933C40.1223 44.6356 40.5312 44.6908 40.5864 44.4513L40.86 43.0437L40.4613 43.0945C40.556 43.2892 40.5822 43.51 40.5355 43.7214C40.5035 44 40.94 43.9971 40.9721 43.7214C41.0091 43.4324 40.9627 43.1389 40.8382 42.8753C40.8161 42.839 40.7838 42.8099 40.7454 42.7915C40.707 42.7731 40.664 42.7663 40.6218 42.7718C40.5795 42.7773 40.5398 42.795 40.5074 42.8227C40.475 42.8503 40.4514 42.8868 40.4395 42.9276L40.1645 44.3352L40.5937 44.3933C40.6374 44.0473 40.6041 43.696 40.4962 43.3644C40.4816 43.3144 40.4496 43.2713 40.4059 43.2429C40.3622 43.2144 40.3097 43.2026 40.2579 43.2094C40.2062 43.2162 40.1586 43.2413 40.1239 43.2802C40.0891 43.319 40.0694 43.3689 40.0684 43.421L40.0379 44.4687C40.0379 44.7227 40.3915 44.759 40.4671 44.5268L40.4904 44.4557C40.5005 44.4186 40.5007 44.3796 40.491 44.3424C40.4813 44.3053 40.462 44.2713 40.4351 44.2438C39.9826 43.7533 39.8909 44.534 39.7337 44.7503L40.1412 44.8606L40.0655 43.7576C40.0495 43.5226 39.7003 43.45 39.6362 43.6996C39.5133 44.1905 39.3427 44.6682 39.1269 45.1261L39.5344 45.2364C39.5297 44.7464 39.481 44.2578 39.3889 43.7765C39.351 43.5763 39.0877 43.585 38.9902 43.7243C38.6991 44.1422 38.1957 45.055 38.5842 45.5557C38.9232 45.991 39.9898 45.8227 40.4453 45.7951C41.1641 45.7545 41.4246 45.3003 41.5032 44.624C41.5406 44.3002 41.5224 43.9723 41.4493 43.6546C41.4101 43.4834 41.0128 42.3979 40.8935 42.4197C41.17 42.3689 41.0521 41.948 40.7771 41.9988L40.7698 41.993Z" fill="#FFD89B"/>
<path d="M39.9244 42.9711L38.7326 44.5398L39.1095 44.759L39.9826 43.4993L39.5839 43.331L39.1488 44.9868C39.137 45.0371 39.1435 45.0899 39.167 45.1359C39.1905 45.1819 39.2295 45.2181 39.2771 45.2382C39.3248 45.2583 39.378 45.261 39.4275 45.2458C39.4769 45.2306 39.5194 45.1985 39.5475 45.1551C39.7455 44.828 39.9678 44.5161 40.2125 44.222L39.8487 44.0102C39.751 44.3851 39.5626 44.7304 39.3001 45.0158L39.6653 45.2277C39.6877 45.0272 39.7412 44.8313 39.824 44.6472C39.936 44.3962 39.5809 44.1741 39.4471 44.4266C39.324 44.6566 39.1834 44.8769 39.0265 45.0855L39.4252 45.1377L39.514 44.7241L39.1153 44.6719L39.1793 45.0347C39.1898 45.0712 39.2097 45.1043 39.2369 45.1309C39.2641 45.1574 39.2978 45.1765 39.3346 45.1861C39.3715 45.1958 39.4102 45.1957 39.447 45.186C39.4838 45.1762 39.5174 45.1571 39.5446 45.1305C39.9136 44.7496 40.2095 44.3045 40.4176 43.8171H40.0422C40.1409 43.9986 40.2102 44.1945 40.2474 44.3976C40.2998 44.6588 40.6476 44.5616 40.6752 44.3396C40.7377 43.8535 40.7698 43.364 40.7712 42.8739H40.3347V43.7867C40.3347 44.0232 40.7232 44.0929 40.764 43.8447C40.7928 43.6246 40.8655 43.4124 40.9779 43.2207H40.5952C40.6874 43.3691 40.7377 43.5396 40.7407 43.7141C40.7407 43.7718 40.7637 43.8272 40.8046 43.868C40.8456 43.9089 40.9011 43.9318 40.959 43.9318C41.0168 43.9318 41.0724 43.9089 41.1133 43.868C41.1542 43.8272 41.1772 43.7718 41.1772 43.7141L41.2325 43.4239H40.812C40.8542 43.6807 41.0143 45.1276 40.4453 44.9578C40.3493 44.9346 40.3216 44.9404 40.3624 44.9737L40.4919 44.698L40.796 44.0551L40.3885 43.9449C40.4147 44.2438 40.4424 44.6704 40.262 44.9259C40.1164 45.1334 39.6683 45.2161 39.4398 45.0942C39.289 44.987 39.1601 44.852 39.06 44.6966L38.7617 44.9868C39.0033 45.1624 39.3947 45.5934 39.7061 45.6181C39.9433 45.6369 40.1426 45.441 40.2983 45.2843C40.5372 45.0382 40.7234 44.7462 40.8457 44.4262C40.968 44.1061 41.0239 43.7646 41.0099 43.4224C41.0099 43.3647 40.9869 43.3093 40.946 43.2685C40.905 43.2277 40.8495 43.2047 40.7916 43.2047C40.7337 43.2047 40.6782 43.2277 40.6373 43.2685C40.5963 43.3093 40.5733 43.3647 40.5733 43.4224V43.9187C40.5733 43.9765 40.5963 44.0318 40.6373 44.0727C40.6782 44.1135 40.7337 44.1364 40.7916 44.1364C40.8495 44.1364 40.905 44.1135 40.946 44.0727C40.9869 44.0318 41.0099 43.9765 41.0099 43.9187V42.7012C41.0099 42.6435 40.9869 42.5881 40.946 42.5473C40.905 42.5064 40.8495 42.4835 40.7916 42.4835C40.7337 42.4835 40.6782 42.5064 40.6373 42.5473C40.5963 42.5881 40.5733 42.6435 40.5733 42.7012C40.5726 42.993 40.5472 43.2843 40.4977 43.5719L40.9269 43.6299C40.8928 43.2832 40.8767 42.9349 40.8789 42.5865C40.8782 42.5344 40.8588 42.4842 40.8242 42.4451C40.7895 42.4061 40.7419 42.3807 40.6901 42.3737C40.6383 42.3667 40.5856 42.3784 40.5418 42.4068C40.4979 42.4352 40.4657 42.4784 40.4511 42.5285C40.3856 42.8057 40.3056 43.0785 40.2285 43.3499L40.6272 43.2976L40.5966 43.1815C40.5763 42.9044 40.1397 42.9029 40.1601 43.1815C40.1649 43.299 40.1957 43.414 40.2503 43.5182C40.3347 43.6953 40.5981 43.6328 40.649 43.466C40.732 43.1931 40.8062 42.9203 40.8717 42.6446L40.4424 42.5865C40.4402 42.9349 40.4562 43.2832 40.4904 43.6299C40.5122 43.8534 40.8731 43.9492 40.9182 43.688C40.9763 43.3602 41.007 43.0282 41.0099 42.6954H40.5733V43.9129H41.0099V43.4166H40.5733C40.599 43.9641 40.4083 44.4997 40.0422 44.9084C39.9855 44.9727 39.9242 45.0329 39.8589 45.0884C39.7556 45.1871 39.661 45.1726 39.578 45.0434C39.3714 44.9578 39.1575 44.7372 38.9771 44.608C38.7966 44.4789 38.5493 44.7343 38.6773 44.9055C39.012 45.3496 39.5111 45.8445 40.1324 45.6311C40.7858 45.4004 40.8746 44.5181 40.8251 43.9376C40.8091 43.7446 40.5195 43.614 40.4191 43.8288C40.2736 44.135 40.1281 44.4397 39.9826 44.7474C39.9316 44.8547 39.8371 45.0028 39.8516 45.1305C39.8996 45.457 40.2969 45.4033 40.5413 45.3844C41.4886 45.3133 41.3388 43.9739 41.2296 43.3005C41.1932 43.077 40.8673 43.1119 40.8091 43.3005C40.7628 43.4331 40.7388 43.5723 40.7378 43.7127H41.1743C41.1585 43.4631 41.0885 43.22 40.9691 43.0001C40.9496 42.9677 40.922 42.9408 40.889 42.9222C40.856 42.9035 40.8187 42.8937 40.7807 42.8937C40.7428 42.8937 40.7054 42.9035 40.6724 42.9222C40.6394 42.9408 40.6118 42.9677 40.5923 43.0001C40.4621 43.2242 40.3743 43.4701 40.3333 43.7257L40.7698 43.7838V42.871C40.7698 42.8132 40.7468 42.7579 40.7059 42.7171C40.6649 42.6762 40.6094 42.6533 40.5515 42.6533C40.4936 42.6533 40.4381 42.6762 40.3972 42.7171C40.3562 42.7579 40.3333 42.8132 40.3333 42.871C40.3318 43.3611 40.2997 43.8506 40.2372 44.3367L40.6665 44.2786C40.6171 44.0414 40.5333 43.8126 40.4176 43.5995C40.3981 43.567 40.3705 43.5401 40.3375 43.5215C40.3045 43.5028 40.2672 43.493 40.2292 43.493C40.1913 43.493 40.154 43.5028 40.1209 43.5215C40.0879 43.5401 40.0603 43.567 40.0408 43.5995C39.851 44.054 39.5781 44.4693 39.2361 44.8243L39.6013 44.9201L39.5373 44.5573C39.5038 44.3642 39.2303 44.3584 39.1386 44.505C39.0663 44.6141 39.0172 44.7369 38.9944 44.8657C38.9716 44.9945 38.9756 45.1266 39.0062 45.2538C39.0425 45.4599 39.3045 45.4381 39.4049 45.3061C39.5617 45.098 39.7023 44.8782 39.8254 44.6487L39.4485 44.4281C39.3479 44.6449 39.2793 44.8752 39.2448 45.1116C39.2186 45.3032 39.4471 45.5034 39.61 45.3235C39.9229 44.9821 40.1494 44.5711 40.2707 44.1248C40.3245 43.9274 40.051 43.7402 39.9054 43.9129C39.6377 44.2329 39.3945 44.5724 39.1779 44.9288L39.5766 45.0971L40.0204 43.4471C40.0321 43.3968 40.0257 43.344 40.0022 43.298C39.9787 43.2521 39.9397 43.2158 39.892 43.1957C39.8444 43.1756 39.7911 43.1729 39.7417 43.1881C39.6922 43.2033 39.6497 43.2354 39.6217 43.2788L38.7486 44.5398C38.5856 44.7735 38.9596 44.9752 39.1255 44.759L40.3129 43.1917C40.4817 42.9682 40.1033 42.7563 39.936 42.9711H39.9244Z" fill="#FFD89B"/>
<path d="M58.4889 48.2085C60.235 47.1433 61.6232 45.5542 63.1656 44.2249C64.839 42.7839 66.5954 41.4416 68.4041 40.1703C71.9168 37.7033 75.6055 35.496 79.2914 33.2946C79.3391 33.2645 79.3733 33.217 79.3867 33.1623C79.4001 33.1075 79.3917 33.0497 79.3632 33.001C79.3348 32.9523 79.2885 32.9165 79.2341 32.9012C79.1797 32.8858 79.1215 32.8921 79.0716 32.9187C75.3858 35.1202 71.6956 37.3231 68.1829 39.7945C66.5255 40.9554 64.9074 42.186 63.3563 43.4921C61.6683 44.9143 60.1652 46.6847 58.2633 47.8326C58.0232 47.9777 58.2429 48.355 58.483 48.2085H58.4889Z" fill="#FFD89B"/>
<path d="M84.9271 26.5349C83.0354 26.7265 80.9983 27.2068 79.8342 28.8568C78.8287 30.2761 78.8505 32.7518 79.7949 34.2088C80.8673 35.8646 83.0587 35.9241 84.7612 35.3886C86.4637 34.8531 88.2259 33.9142 88.2099 31.8855C88.2011 30.7971 87.8068 29.6637 87.3717 28.6769C86.9963 27.825 86.3313 27.0806 85.3244 27.1749C85.0464 27.201 85.0435 27.6364 85.3244 27.6103C86.6733 27.4855 87.1069 29.0832 87.427 30.0918C87.718 31.0336 87.9872 32.1481 87.5303 33.0841C87.0734 34.0202 85.9719 34.4976 85.0304 34.8401C84.0118 35.2087 82.8928 35.4336 81.8291 35.1303C79.7221 34.5426 79.1401 31.8797 79.7469 29.9902C80.4453 27.8134 82.919 27.1735 84.9344 26.9703C85.2109 26.9427 85.2138 26.5074 84.9344 26.5349H84.9271Z" fill="#FFD89B"/>
<path d="M87.8374 43.3687C85.9457 43.5603 83.9085 44.0406 82.7444 45.6906C81.7389 47.1099 81.7608 49.5856 82.7051 51.0426C83.7776 52.6984 85.969 52.7579 87.6715 52.2224C89.374 51.687 91.1362 50.748 91.1202 48.7193C91.1114 47.6309 90.7171 46.4975 90.282 45.5107C89.9066 44.6588 89.2416 43.9144 88.2346 44.0087C87.9567 44.0348 87.9538 44.4702 88.2346 44.4441C89.5835 44.3193 90.0172 45.917 90.3373 46.9256C90.6283 47.8674 90.8975 48.9819 90.4406 49.918C89.9837 50.854 88.8822 51.3314 87.9407 51.6739C86.9221 52.0425 85.8031 52.2674 84.7394 51.9641C82.6324 51.3764 82.0503 48.7135 82.6571 46.824C83.3556 44.6472 85.8293 44.0073 87.8447 43.8041C88.1211 43.7765 88.124 43.3412 87.8447 43.3687H87.8374Z" fill="#FFD89B"/>
<path d="M82.0736 30.7739L83.4516 32.3412C83.4789 32.3674 83.5125 32.3862 83.5492 32.3956C83.5859 32.4051 83.6244 32.4049 83.6611 32.3951C83.6977 32.3854 83.7311 32.3663 83.7582 32.3398C83.7852 32.3133 83.8049 32.2803 83.8154 32.2439C84.1064 31.4806 84.0511 30.6897 84.1195 29.8872C84.1949 29.0578 84.4037 28.2458 84.7379 27.4826C85.4093 25.9345 86.5475 24.6335 87.9945 23.7603C88.2346 23.6152 88.0149 23.2379 87.7748 23.3844C86.348 24.2412 85.2035 25.4952 84.4818 26.9921C84.1286 27.7205 83.8835 28.4963 83.7543 29.2951C83.6088 30.2369 83.7412 31.2237 83.3919 32.1278L83.7572 32.0306L82.3864 30.4662C82.2002 30.2558 81.8932 30.5649 82.078 30.7739H82.0736Z" fill="#FFD89B"/>
<path d="M59.1917 49.9049C66.6973 49.6766 74.2048 49.6282 81.7142 49.7598C81.995 49.7598 81.995 49.3244 81.7142 49.3244C74.2067 49.1909 66.6992 49.2393 59.1917 49.4695C58.9109 49.4782 58.9094 49.9136 59.1917 49.9049Z" fill="#FFD89B"/>
<path d="M83.2828 45.6123C85.8486 46.6165 88.3166 47.8533 90.656 49.307C90.8946 49.4521 91.1143 49.0792 90.8757 48.9311C88.5055 47.4595 86.0048 46.2081 83.405 45.1929C83.1446 45.0898 83.0311 45.5107 83.2901 45.6123H83.2828Z" fill="#FFD89B"/>
<path d="M87.9421 43.6401C85.3403 46.665 83.8331 50.4741 83.6626 54.4558C83.651 54.7359 84.0875 54.7359 84.0991 54.4558C84.2644 50.5884 85.7263 46.8882 88.2506 43.9478C88.4325 43.7359 88.1255 43.4268 87.9421 43.6401Z" fill="#FFD89B"/>
<path d="M29.7443 48.3245L46.0082 48.1127L47.8781 48.088C48.2142 48.088 48.5504 48.0764 48.8865 48.0749C49.3594 48.0749 49.6781 48.4668 49.6694 48.9457C49.6475 49.9615 49.0073 49.9252 48.1691 49.9615L46.1479 50.0529L37.9177 50.4143C36.4437 50.4796 34.9682 50.5594 33.4941 50.6102C32.1642 50.6508 29.6351 50.2183 30.2259 48.2883C30.3074 48.0198 29.8869 47.9051 29.8039 48.1722C29.5129 49.1212 30.028 50.0848 30.8575 50.5826C32.0347 51.2879 33.5858 51.0484 34.8852 50.9904L44.9897 50.5333L47.443 50.4244C48.0716 50.3954 48.9462 50.5231 49.5238 50.2314C50.2019 49.8904 50.3213 48.5364 49.8934 47.9661C49.6737 47.6759 49.3652 47.6497 49.0204 47.6367C48.1153 47.6019 47.1942 47.6613 46.2876 47.673L41.25 47.7397L29.7385 47.8848C29.4576 47.8848 29.4576 48.3202 29.7385 48.3202L29.7443 48.3245Z" fill="#FFD89B"/>
<path d="M95.455 101.656C95.0883 101.885 94.6692 102.014 94.2909 102.216C93.9125 102.418 93.5444 102.721 93.4367 103.139C93.3965 103.268 93.4032 103.408 93.4556 103.533C93.5497 103.685 93.6938 103.799 93.863 103.856C94.6316 104.196 95.4618 104.377 96.3027 104.386C97.1436 104.395 97.9776 104.234 98.7537 103.911C99.0268 103.78 99.3089 103.668 99.5977 103.577C99.9536 103.505 100.316 103.468 100.679 103.467C101.061 103.444 101.44 103.396 101.815 103.322C102.004 103.301 102.183 103.227 102.33 103.108C102.465 102.953 102.547 102.759 102.562 102.554C102.734 101.423 102.474 100.269 101.834 99.3207C101.754 99.1877 101.645 99.0735 101.517 98.9855C101.36 98.9048 101.188 98.8587 101.012 98.8505C100.285 98.762 99.522 98.5995 98.7872 98.5821C98.2604 98.5705 97.9956 98.8201 97.6231 99.1814C96.8533 99.9491 96.4037 101.065 95.455 101.656Z" fill="#323444"/>
<path d="M106.178 101.548C106.178 102.259 106.264 103.013 106.696 103.58C106.893 103.825 107.133 104.034 107.403 104.197C108.317 104.777 109.527 104.991 110.491 104.499C110.646 104.429 110.779 104.317 110.875 104.176C111.02 103.924 110.943 103.609 110.862 103.33L109.468 98.5124C108.567 98.6503 107.243 98.7475 106.443 99.2032C105.862 99.5326 106.178 100.913 106.178 101.548Z" fill="#323444"/>
<path d="M94.6372 71.8817C94.5528 72.1472 94.2472 72.2706 94.0799 72.4941C93.8834 72.7567 93.9038 73.121 93.9751 73.4402C94.0632 73.911 94.2849 74.3467 94.6139 74.6955C94.7809 74.8683 94.9869 74.9987 95.2147 75.076C95.4425 75.1532 95.6855 75.175 95.9235 75.1396C96.3921 75.051 96.7966 74.6374 96.8126 74.1629C96.8041 73.9471 96.7578 73.7344 96.6758 73.5345L95.6834 70.6728C95.6794 70.6526 95.671 70.6335 95.659 70.6167C95.6469 70.5999 95.6315 70.5859 95.6136 70.5756C95.5761 70.5673 95.5369 70.5741 95.5044 70.5945C95.2702 70.7048 94.8001 70.8208 94.6634 71.0632C94.5266 71.3055 94.7361 71.619 94.6372 71.8817Z" fill="#FBB3B2"/>
<path d="M94.173 71.738C94.5353 71.6814 94.8525 71.4696 95.1916 71.3302C95.5306 71.1909 95.9555 71.1372 96.2407 71.3694C96.3222 71.4362 96.4008 71.5276 96.507 71.5261C96.3625 70.8165 96.144 70.1239 95.8551 69.4596C95.8449 69.4278 95.8251 69.3999 95.7983 69.3798C95.7587 69.3638 95.7143 69.3638 95.6747 69.3798L94.6954 69.6352C94.333 69.7296 94.2908 69.7005 94.3185 70.0561C94.3258 70.2143 94.4072 71.738 94.173 71.738Z" fill="#323444"/>
<path d="M94.0653 51.0731C93.9198 51.2966 93.9198 51.5752 93.9198 51.8379C93.9198 53.1222 93.9329 54.4137 94.1235 55.685C94.1686 55.9897 94.2254 56.2945 94.2545 56.6021C94.2874 57.0304 94.2942 57.4602 94.2748 57.8893L94.1293 63.4764C94.1119 64.1599 94.0769 64.8942 93.6535 65.4311C93.5251 65.6111 93.4648 65.8307 93.4832 66.0508C93.5938 67.4526 93.8267 68.8429 94.058 70.2287C94.4305 70.0612 94.8376 69.9839 95.2458 70.0034C95.654 70.0228 96.0518 70.1383 96.4066 70.3405C97.1408 68.0383 97.5468 65.6446 97.6129 63.2297C97.6464 62.0412 97.5954 60.8454 97.7788 59.6714C98.0858 57.6949 97.9607 55.6675 97.7351 53.6794C97.6638 53.0496 97.5125 52.4009 97.108 51.9133C96.725 51.4867 96.215 51.1937 95.6528 51.0774C95.1144 50.9367 94.6328 51.0818 94.0653 51.0731Z" fill="#5B5583"/>
<path opacity="0.1" d="M94.0653 51.0731C93.9198 51.2966 93.9198 51.5752 93.9198 51.8379C93.9198 53.1222 93.9329 54.4137 94.1235 55.685C94.1686 55.9897 94.2254 56.2945 94.2545 56.6021C94.2874 57.0304 94.2942 57.4602 94.2748 57.8893L94.1293 63.4764C94.1119 64.1599 94.0769 64.8942 93.6535 65.4311C93.5251 65.6111 93.4648 65.8307 93.4832 66.0508C93.5938 67.4526 93.8267 68.8429 94.058 70.2287C94.4305 70.0612 94.8376 69.9839 95.2458 70.0034C95.654 70.0228 96.0518 70.1383 96.4066 70.3405C97.1408 68.0383 97.5468 65.6446 97.6129 63.2297C97.6464 62.0412 97.5954 60.8454 97.7788 59.6714C98.0858 57.6949 97.9607 55.6675 97.7351 53.6794C97.6638 53.0496 97.5125 52.4009 97.108 51.9133C96.725 51.4867 96.215 51.1937 95.6528 51.0774C95.1144 50.9367 94.6328 51.0818 94.0653 51.0731Z" fill="black"/>
<path d="M95.8435 67.2756C94.8675 72.2632 95.4004 77.4276 97.3743 82.1125C97.5448 82.4594 97.6644 82.8288 97.7293 83.2096C97.8094 83.9207 97.4805 84.6042 97.2928 85.2921C96.8562 86.8565 97.108 88.5224 97.3874 90.1231C97.5038 90.7906 97.6236 91.4577 97.7468 92.1243C97.8676 92.7744 97.984 93.4811 97.6813 94.0703C97.9418 95.1529 98.096 96.2253 98.3565 97.3079C98.3841 97.3936 98.3925 97.4842 98.3812 97.5735C98.3287 97.7152 98.2363 97.8386 98.1149 97.929C97.9208 98.1253 97.7813 98.3687 97.7101 98.6351C97.6389 98.9015 97.6385 99.1818 97.7089 99.4484C98.3739 98.9724 99.3009 99.1393 100.06 99.4484C100.82 99.7575 101.568 100.174 102.389 100.174C102.269 99.2133 102.154 98.2048 102.509 97.3036C102.716 96.7812 103.08 96.2877 103.07 95.729C103.059 95.2284 102.752 94.7814 102.678 94.2866C102.651 93.9787 102.662 93.6685 102.713 93.3636C102.908 91.5873 102.687 89.7937 102.466 88.0203C102.441 87.6706 102.358 87.3274 102.221 87.0045C102.118 86.7955 101.964 86.5953 101.967 86.3616C101.967 86.0902 102.186 85.8697 102.268 85.6114C102.413 85.1354 102.146 84.4881 102.549 84.1935C103.611 83.4157 103.204 81.5582 103.18 80.2449C103.162 79.112 103.113 77.98 103.035 76.8491C103.704 78.7245 103.977 80.7175 103.838 82.7032C103.791 83.3533 103.706 84.0368 103.96 84.6376C104.155 85.0991 104.542 85.4793 104.647 85.9683C104.712 86.2702 104.666 86.5822 104.68 86.8899C104.695 87.1975 104.8 87.5327 105.066 87.688C105.086 89.087 105.212 90.5831 105.233 91.9821C105.219 92.6972 105.278 93.4119 105.408 94.1153C105.473 94.3391 105.51 94.5702 105.516 94.8032C105.483 95.0953 105.405 95.3806 105.286 95.6492C105.032 96.3981 104.966 97.1974 105.093 97.9777C105.22 98.7579 105.536 99.4955 106.013 100.126C106.357 99.5181 107.073 99.1959 107.771 99.1451C108.47 99.0943 109.159 99.2699 109.836 99.447C109.733 98.5991 109.902 97.7403 110.319 96.9945C110.431 96.8264 110.517 96.6424 110.574 96.4488C110.652 96.0802 110.469 95.7131 110.37 95.3488C110.209 94.7683 110.265 94.1429 110.303 93.5363C110.43 91.5047 110.34 89.4654 110.034 87.4529C109.987 87.0565 109.893 86.6669 109.756 86.292C109.704 86.1585 109.64 86.0308 109.596 85.8958C109.527 85.6537 109.488 85.4042 109.479 85.1528L109.312 82.8309C109.194 81.2041 109.73 79.5976 110.104 78.01C110.271 77.2989 110.453 76.5893 110.565 75.8666C110.718 74.8827 110.743 73.877 110.967 72.9062C111.167 72.0355 111.53 71.1865 111.605 70.2941C111.722 68.9111 111.146 67.5745 110.587 66.3062C110.354 65.7838 109.474 65.836 108.908 65.7431C104.893 65.0858 100.664 65.0814 96.8781 66.5631C96.4865 66.7248 96.1339 66.9677 95.8435 67.2756Z" fill="#3C354C"/>
<path d="M98.7377 41.5185L99.183 43.2454C99.304 43.6414 99.3711 44.0519 99.3823 44.4658C99.3869 44.6168 99.3534 44.7665 99.2848 44.9012C99.2116 45.0118 99.1177 45.1074 99.0084 45.1827C98.7042 45.4135 98.4933 45.9519 98.1455 46.1115C98.3245 46.422 98.5718 46.2203 98.8949 46.3756C99.4638 46.6513 99.9848 47.0475 100.602 47.1839C101.184 47.3116 101.795 47.1912 102.373 47.0388C103.192 46.8168 104.007 46.5106 104.666 45.9751C105.325 45.4396 105.7 44.9665 105.698 44.1205C104.97 44.2061 104.322 43.4732 104.001 42.8144C103.889 42.5639 103.807 42.3015 103.756 42.0322L103.366 40.3212C102.942 40.4141 102.595 40.7174 102.189 40.8756C101.783 41.0338 101.303 41.0483 100.852 41.0686C100.051 41.1049 99.255 41.2078 98.4714 41.3763C98.3637 41.398 98.2284 41.4662 98.2546 41.5707" fill="#FBB3B2"/>
<path opacity="0.1" d="M98.7377 41.5185L99.183 43.2454C99.304 43.6414 99.3711 44.0519 99.3823 44.4658C99.3869 44.6168 99.3534 44.7665 99.2848 44.9012C99.2116 45.0118 99.1177 45.1074 99.0084 45.1827C98.7042 45.4135 98.4933 45.9519 98.1455 46.1115C98.3245 46.422 98.5718 46.2203 98.8949 46.3756C99.4638 46.6513 99.9848 47.0475 100.602 47.1839C101.184 47.3116 101.795 47.1912 102.373 47.0388C103.192 46.8168 104.007 46.5106 104.666 45.9751C105.325 45.4396 105.7 44.9665 105.698 44.1205C104.97 44.2061 104.322 43.4732 104.001 42.8144C103.889 42.5639 103.807 42.3015 103.756 42.0322L103.366 40.3212C102.942 40.4141 102.595 40.7174 102.189 40.8756C101.783 41.0338 101.303 41.0483 100.852 41.0686C100.051 41.1049 99.255 41.2078 98.4714 41.3763C98.3637 41.398 98.2284 41.4662 98.2546 41.5707" fill="black"/>
<path d="M100.65 42.4704C102.778 42.4704 104.503 40.75 104.503 38.6277C104.503 36.5054 102.778 34.785 100.65 34.785C98.5217 34.785 96.7966 36.5054 96.7966 38.6277C96.7966 40.75 98.5217 42.4704 100.65 42.4704Z" fill="#FBB3B2"/>
<path d="M101.711 44.9621C101.917 44.5183 102.214 44.1227 102.584 43.8012C103.126 43.3266 103.868 42.9421 103.997 42.2339L105.172 43.5995C105.236 43.6628 105.286 43.739 105.318 43.823C105.333 43.9017 105.33 43.9827 105.311 44.0605C105.292 44.1384 105.257 44.2112 105.207 44.2743C104.916 44.7372 104.458 45.0681 104.024 45.4033C103.03 46.1884 102.079 47.0255 101.174 47.911C101.134 47.9571 101.08 47.9896 101.021 48.0038C100.965 48.0054 100.909 47.9897 100.862 47.9588C100.081 47.5499 99.3901 46.9894 98.8294 46.3103C98.7872 46.2595 98.7348 46.2015 98.6664 46.2058C98.6252 46.2134 98.5872 46.2331 98.5573 46.2624C98.1658 46.5817 97.738 46.9633 97.236 46.914C97.8865 46.4482 98.2546 45.6703 98.3914 44.8823C98.4184 44.6126 98.474 44.3465 98.5573 44.0885C98.6004 43.9594 98.6747 43.8429 98.7737 43.7493C98.8727 43.6556 98.9933 43.5877 99.1248 43.5516C98.8076 44.0348 99.0244 44.7198 99.4507 45.1102C99.865 45.4608 100.362 45.701 100.894 45.8082C101.389 45.9011 101.534 45.3424 101.711 44.9621Z" fill="#323444"/>
<path d="M96.6976 67.6703C97.2462 67.8053 97.7657 68.0346 98.2983 68.2043C99.2689 68.5075 100.29 68.6146 101.303 68.5193C101.615 68.5124 101.918 68.4162 102.176 68.2421C102.245 68.1869 102.307 68.1216 102.38 68.0708C102.502 67.998 102.634 67.9437 102.771 67.9098C104.106 67.4933 105.223 66.595 106.307 65.7156C106.342 65.6865 106.382 65.6503 106.379 65.6038C106.374 65.5722 106.358 65.5431 106.335 65.5211L105.765 64.8681C104.269 65.122 102.736 65.0263 101.219 64.9885C100.907 64.9747 100.595 64.983 100.285 65.0132C99.9848 65.048 99.6894 65.1235 99.394 65.1873C98.2721 65.4311 97.1254 65.524 95.989 65.6836C95.9095 65.6895 95.8323 65.7133 95.7634 65.7533C95.7155 65.7903 95.6746 65.8355 95.6427 65.8868L95.244 66.4455C95.0892 66.6334 94.9752 66.8514 94.9093 67.0855C94.8161 67.5208 95.0111 67.666 95.3822 67.6094C95.8205 67.5454 96.2671 67.5661 96.6976 67.6703Z" fill="#323444"/>
<path d="M101.158 47.2463C100.712 46.7914 100.208 46.3985 99.6573 46.0781C99.435 45.9372 99.1882 45.8388 98.9298 45.7879C98.7997 45.7623 98.6657 45.7654 98.5369 45.797C98.4082 45.8285 98.288 45.8878 98.1848 45.9707C98.0553 46.0854 97.9738 46.245 97.8486 46.3654C97.6911 46.4974 97.5106 46.5992 97.316 46.6658C96.6537 46.9481 96.0258 47.305 95.4447 47.7295C95.128 47.9505 94.8426 48.2131 94.5964 48.5103C93.9372 49.352 93.8383 50.497 93.8558 51.565C93.8688 52.308 94.5833 52.8595 95.0751 53.4153C95.5364 53.9622 95.9539 54.5445 96.3237 55.1567C96.5885 55.5747 96.865 56.0274 96.8315 56.5252C96.8038 56.933 96.5652 57.3161 96.603 57.7224C96.6161 57.8675 96.6627 58.001 96.6758 58.1418C96.702 58.432 96.587 58.7223 96.5579 59.0125C96.5186 59.4232 96.6525 59.831 96.6598 60.2446C96.6544 60.5277 96.6183 60.8094 96.5521 61.0848C96.2727 62.4112 95.922 63.7448 95.9933 65.0988L95.1872 65.2439C95.2636 65.3186 95.3212 65.4101 95.3555 65.5111C95.3898 65.6121 95.3998 65.7197 95.3846 65.8253C95.3695 65.9308 95.3296 66.0313 95.2683 66.1187C95.2069 66.206 95.1258 66.2777 95.0315 66.328C96.2902 66.7474 97.6507 66.5355 98.9851 66.534C100.09 66.534 101.19 66.6791 102.293 66.6588C103.396 66.6385 104.533 66.4397 105.443 65.8171C105.69 65.6488 105.917 65.4514 106.178 65.3049C106.527 65.1246 106.903 65.002 107.291 64.9421C108.01 64.8053 108.741 64.7401 109.474 64.7476C109.832 64.7476 110.222 64.7621 110.507 64.5473C110.821 64.3094 110.901 63.8784 110.943 63.488C110.986 63.0758 111.012 62.6623 111.019 62.2487C111.031 61.9266 111.014 61.6041 110.968 61.2851C110.924 61.0518 110.868 60.8212 110.798 60.5943L110.249 58.6671C110.022 57.8719 110.338 56.9997 110.405 56.1755C110.421 55.981 110.424 55.7546 110.274 55.6298C110.22 55.5848 110.146 55.5543 110.128 55.4847C110.121 55.4516 110.12 55.4173 110.126 55.3838C110.132 55.3504 110.145 55.3185 110.163 55.2902C110.454 54.7098 110.891 54.1975 111.29 53.6736C111.959 52.7547 112.581 51.8019 113.152 50.8191C112.973 48.7626 112.105 46.8261 110.687 45.322C110.396 45.0071 110.063 44.7053 109.656 44.5631C109.389 44.482 109.113 44.4375 108.835 44.431C107.694 44.3541 106.507 44.2859 105.513 43.7141C105.441 43.6648 105.361 43.6308 105.276 43.614C105.056 43.5893 104.896 43.8055 104.753 43.9768C104.387 44.4121 103.847 44.6617 103.372 44.9825C102.488 45.5818 101.796 46.4061 101.158 47.2463Z" fill="#5B5583"/>
<path d="M113.251 51.4127C113.478 52.1296 113.456 52.8958 113.531 53.6431C113.575 54.0941 113.654 54.541 113.768 54.9797C113.82 55.2208 113.913 55.4511 114.044 55.6603C114.175 55.8518 114.363 56.0071 114.446 56.2234C114.491 56.3698 114.511 56.5229 114.506 56.6761L114.523 57.6774C114.56 58.2081 114.479 58.7403 114.286 59.236L113.659 61.1385C113.32 62.1689 112.972 63.2152 112.361 64.112C112.275 64.2638 112.144 64.3858 111.987 64.4617C111.863 64.4942 111.737 64.5137 111.61 64.5198C111.388 64.5592 111.187 64.6746 111.041 64.8459C110.895 65.0173 110.814 65.234 110.811 65.4587C110.665 65.2465 110.484 65.0613 110.274 64.9116L108.998 63.8958C108.561 63.5417 108.106 63.1818 107.576 62.9772C108.289 62.7553 108.921 62.332 109.397 61.7585C109.873 61.1851 110.171 60.4863 110.257 59.7468C110.256 59.5267 110.306 59.3093 110.402 59.1112C110.508 58.94 110.705 58.8094 110.719 58.6077C110.737 58.3537 110.449 58.1621 110.449 57.9082C110.449 57.7398 110.574 57.6005 110.629 57.4423C110.681 57.2469 110.681 57.0414 110.629 56.8459L110.453 55.8707C110.443 55.773 110.413 55.6783 110.366 55.5921C110.3 55.5094 110.227 55.4327 110.147 55.3628C109.845 55.0247 109.979 54.4921 110.147 54.0756C110.535 53.1511 111.034 52.2773 111.635 51.4736C111.848 51.2037 112.046 50.9217 112.227 50.629C112.381 50.362 112.416 49.992 112.579 49.7583C112.788 50.3069 113.072 50.8482 113.251 51.4127Z" fill="#5B5583"/>
<path d="M107.531 63.0366C107.466 63.0847 107.41 63.1436 107.365 63.2108C107.194 63.4254 106.965 63.5878 106.706 63.6795C106.852 63.784 106.984 63.8871 107.121 63.993C108.133 64.7725 109.059 65.6563 109.885 66.6298C109.977 66.3033 110.526 66.3265 110.66 66.0145C110.691 65.9252 110.701 65.8298 110.689 65.7359C110.661 65.247 110.591 64.7615 110.479 64.2847C110.435 64.0392 110.336 63.8069 110.188 63.6055C109.984 63.3603 109.667 63.2427 109.365 63.1411C108.906 62.9815 107.997 62.7566 107.531 63.0366Z" fill="#323444"/>
<path d="M105.712 64.1773C105.276 64.4995 104.893 64.9029 104.403 65.1235C104.056 65.2802 103.662 65.3484 103.359 65.5821C103.524 65.9434 103.951 66.1306 104.349 66.1161C104.746 66.0772 105.127 65.9378 105.456 65.7112C105.717 65.5516 106.022 65.3658 106.306 65.4776C106.349 65.6982 106.16 65.9057 106.16 66.1292C106.16 66.3527 106.347 66.5152 106.53 66.6327C107.403 67.1943 108.526 67.1479 109.567 67.0826C109.626 67.0848 109.685 67.0675 109.734 67.0333C109.757 67.007 109.774 66.9766 109.785 66.9437C109.795 66.9108 109.799 66.8762 109.797 66.8417C109.81 66.6124 109.816 66.3846 109.817 66.1553C109.846 65.9704 109.822 65.781 109.748 65.6093C109.673 65.4376 109.551 65.2907 109.395 65.1859C108.83 64.7019 108.221 64.2719 107.576 63.9016C106.936 63.5315 106.287 63.7507 105.712 64.1773Z" fill="#FBB3B2"/>
<path d="M102.003 37.0213C101.357 37.0982 100.887 37.6017 100.952 38.1488C101.018 38.6959 101.594 39.0732 102.24 38.9949C102.886 38.9165 103.356 38.4144 103.291 37.8688C103.225 37.3231 102.649 36.9443 102.003 37.0213ZM102.223 38.844C101.676 38.9093 101.188 38.5885 101.131 38.1271C101.075 37.6656 101.475 37.2389 102.021 37.1736C102.566 37.1083 103.055 37.429 103.112 37.8905C103.169 38.352 102.768 38.7786 102.223 38.844Z" fill="#3C354C"/>
<path d="M98.8541 37.3985C98.208 37.4755 97.738 37.979 97.8035 38.5247C97.869 39.0703 98.4452 39.4491 99.0913 39.3722C99.7374 39.2952 100.207 38.7917 100.142 38.2446C100.076 37.6975 99.5002 37.3216 98.8541 37.3985ZM99.0739 39.2198C98.5267 39.2851 98.0392 38.9644 97.984 38.5043C97.9287 38.0443 98.3259 37.6162 98.873 37.5495C99.4202 37.4827 99.9077 37.8049 99.9629 38.2664C100.018 38.7278 99.6195 39.1545 99.0739 39.2198Z" fill="#3C354C"/>
<path d="M96.5157 37.6786L97.9199 37.9776L97.7817 38.3462L96.4575 37.9587L96.5157 37.6786Z" fill="#3C354C"/>
<path d="M104.343 36.7412L103.048 37.3637L103.27 37.6888L104.465 36.9995L104.343 36.7412Z" fill="#3C354C"/>
<path d="M100.012 37.8847L100.998 37.7672L100.947 38.0109L100.101 38.0675L100.012 37.8847Z" fill="#3C354C"/>
<path d="M98.1018 37.5553C98.1945 37.3564 98.2441 37.1403 98.2473 36.9211C98.2508 36.7899 98.2733 36.6599 98.3143 36.5351C98.3858 36.3766 98.4946 36.2377 98.6315 36.1302C99.0855 35.7471 99.7359 35.5497 100.378 35.5222C101.077 35.4901 101.773 35.6401 102.397 35.9575C102.588 36.0466 102.759 36.1729 102.899 36.329C103.103 36.5772 103.147 36.8979 103.352 37.1431C103.492 37.2919 103.668 37.4022 103.863 37.4632C104.059 37.5242 104.266 37.5339 104.467 37.4914C104.538 37.2389 104.445 36.9719 104.481 36.7136C104.538 36.4922 104.616 36.2766 104.712 36.0693C104.938 35.4061 104.609 34.6369 103.931 34.2408C103.694 34.0957 103.413 34.0013 103.236 33.8054C103.058 33.6095 103.016 33.4063 102.894 33.2104C102.569 32.6924 101.729 32.45 101.091 32.6895C100.89 32.7649 100.712 32.8796 100.509 32.9608C100.13 33.1161 99.6996 33.1437 99.2834 33.1959C98.8732 33.2337 98.472 33.3387 98.096 33.5065C97.7366 33.6835 97.4354 33.9679 97.3524 34.3075C97.3131 34.4643 97.3219 34.6268 97.2826 34.7821C97.0818 35.5701 95.7853 35.9532 95.7125 36.7571C95.6863 37.0474 95.8449 37.326 96.0428 37.5625C96.1796 37.7236 96.507 38.1546 96.7384 38.217C96.9697 38.2794 97.1458 38.0603 97.367 37.9848C97.7162 37.876 97.9272 37.8528 98.1018 37.5553Z" fill="#CBCEDA"/>
<path d="M114.517 88.6675C114.517 95.9583 119.104 101.859 124.771 101.859L114.517 88.6675Z" fill="#46455B"/>
<path d="M124.771 101.86C124.771 94.4868 129.891 88.521 136.216 88.521L124.771 101.86Z" fill="#FFD89B"/>
<path d="M118.234 89.3293C118.234 96.2558 121.158 101.86 124.771 101.86L118.234 89.3293Z" fill="#FFD89B"/>
<path d="M124.771 101.86C124.771 92.4392 130.688 84.8146 137.999 84.8146L124.771 101.86Z" fill="#46455B"/>
<path opacity="0.1" d="M124.328 104.38C125.736 104.38 126.877 104.187 126.877 103.95C126.877 103.713 125.736 103.52 124.328 103.52C122.92 103.52 121.778 103.713 121.778 103.95C121.778 104.187 122.92 104.38 124.328 104.38Z" fill="#FFD89B"/>
<path d="M122.615 101.953C122.615 101.953 124.07 101.908 124.507 101.598C124.943 101.287 126.743 100.914 126.852 101.413C126.961 101.913 129.035 103.896 127.395 103.909C125.755 103.922 123.58 103.654 123.143 103.388C122.707 103.123 122.615 101.953 122.615 101.953Z" fill="#A8A8A8"/>
<path opacity="0.2" d="M127.426 103.735C125.784 103.748 123.612 103.48 123.174 103.214C122.84 103.013 122.708 102.285 122.663 101.952H122.615C122.615 101.952 122.707 103.121 123.145 103.387C123.583 103.652 125.755 103.921 127.396 103.908C127.871 103.908 128.034 103.735 128.025 103.487C127.96 103.638 127.786 103.732 127.426 103.735Z" fill="black"/>
<path d="M3.27258 92.9282C3.27258 98.733 6.92059 103.423 11.43 103.423L3.27258 92.9282Z" fill="#46455B"/>
<path d="M11.43 103.423C11.43 97.5575 15.5044 92.8107 20.5348 92.8107L11.43 103.423Z" fill="#FFD89B"/>
<path d="M6.22795 93.4565C6.22795 98.971 8.55616 103.426 11.43 103.426L6.22795 93.4565Z" fill="#FFD89B"/>
<path d="M11.43 103.423C11.43 95.9278 16.1374 89.8619 21.9535 89.8619L11.43 103.423Z" fill="#46455B"/>
<path opacity="0.1" d="M11.0765 105.429C12.1967 105.429 13.1049 105.275 13.1049 105.086C13.1049 104.897 12.1967 104.744 11.0765 104.744C9.95617 104.744 9.048 104.897 9.048 105.086C9.048 105.275 9.95617 105.429 11.0765 105.429Z" fill="#FFD89B"/>
<path d="M9.71443 103.497C9.71443 103.497 10.8713 103.461 11.219 103.207C11.5668 102.953 13.0001 102.663 13.086 103.062C13.1718 103.461 14.8248 105.037 13.5225 105.047C12.2202 105.057 10.4871 104.844 10.1393 104.634C9.79155 104.423 9.71443 103.497 9.71443 103.497Z" fill="#A8A8A8"/>
<path opacity="0.2" d="M13.5414 104.921C12.2318 104.931 10.506 104.718 10.1582 104.506C9.89341 104.346 9.78864 103.767 9.75226 103.502H9.71443C9.71443 103.502 9.78719 104.432 10.135 104.644C10.4827 104.856 12.2129 105.067 13.5181 105.057C13.895 105.057 14.026 104.921 14.0187 104.722C13.9663 104.838 13.8223 104.912 13.5414 104.921Z" fill="black"/>
</g>
<defs>
<clipPath id="clip0">
<rect width="138" height="110" fill="white"/>
</clipPath>
</defs>
</svg>
