<svg width="106" height="110" viewBox="0 0 106 110" fill="none" xmlns="http://www.w3.org/2000/svg">
<path d="M100.453 102.501C100.453 106.642 77.9661 110 50.2265 110C22.4869 110 0 106.642 0 102.501C0 99.5695 11.2718 97.0296 27.6991 95.7975C34.4732 95.2879 42.1271 95.0025 50.2265 95.0025C53.556 95.0025 56.8094 95.0509 59.9558 95.1428C83.0389 95.8201 100.453 98.8567 100.453 102.501Z" fill="#3F3D56"/>
<path opacity="0.1" d="M43.7456 104.033C54.394 104.033 63.0261 102.986 63.0261 101.695C63.0261 100.404 54.394 99.3566 43.7456 99.3566C33.0973 99.3566 24.4651 100.404 24.4651 101.695C24.4651 102.986 33.0973 104.033 43.7456 104.033Z" fill="black"/>
<path d="M43.6647 103.388C53.7313 103.388 61.892 94.7242 61.892 84.0366C61.892 73.349 53.7313 64.685 43.6647 64.685C33.598 64.685 25.4373 73.349 25.4373 84.0366C25.4373 94.7242 33.598 103.388 43.6647 103.388Z" fill="#3F3D56"/>
<path d="M49.4164 95.4863H38.0749V105.807H49.4164V95.4863Z" fill="#FFD89B"/>
<path d="M64.2413 97.9859L63.5932 101.534L67.8057 102.179L70.5601 100.566L70.3981 97.9859H64.2413Z" fill="#575A89"/>
<path d="M43.0165 31.3841C43.0165 31.3841 42.6925 35.0931 41.8824 35.2544C41.0723 35.4156 43.6646 41.8662 43.6646 41.8662H47.5531L50.6315 41.0599L49.1733 37.5121C49.1733 37.5121 47.2291 34.9319 48.6873 32.8354C50.1455 30.739 43.0165 31.3841 43.0165 31.3841Z" fill="#A0616A"/>
<path opacity="0.1" d="M43.0165 31.3841C43.0165 31.3841 42.6925 35.0931 41.8824 35.2544C41.0723 35.4156 43.6646 41.8662 43.6646 41.8662H47.5531L50.6315 41.0599L49.1733 37.5121C49.1733 37.5121 47.2291 34.9319 48.6873 32.8354C50.1455 30.739 43.0165 31.3841 43.0165 31.3841Z" fill="black"/>
<path d="M34.9155 59.7664C34.9155 59.7664 30.703 67.8296 34.1054 69.4422C37.5078 71.0549 38.3179 70.8936 38.3179 71.3774C38.3179 71.8612 37.6699 71.6999 37.9939 72.5062C38.3179 73.3126 37.3458 76.5378 38.3179 78.473C39.2901 80.4081 38.966 81.8595 38.966 81.8595C38.966 81.8595 38.966 82.0208 39.2901 82.6658C39.6141 83.3109 39.7761 83.7947 39.6141 84.1172C39.4521 84.4397 38.48 86.5362 39.4521 87.0199C40.4242 87.5037 45.4469 87.8263 45.9329 87.0199C46.419 86.2136 45.4469 85.7298 45.9329 85.246C46.419 84.7623 46.743 84.601 46.419 84.2785C46.0949 83.9559 45.7709 79.9244 45.7709 79.9244C45.7709 79.9244 46.581 75.2477 46.257 74.6027C45.9329 73.9576 45.4469 73.3126 45.7709 72.8288C46.0949 72.345 46.419 72.5062 46.581 71.8612C46.743 71.2161 47.0671 69.7648 47.0671 69.7648L48.8493 69.6035L53.0618 70.4098C53.0618 70.4098 57.7605 75.5702 62.9451 77.1829C62.9451 77.1829 64.4033 78.6342 64.8894 78.6342C65.3754 78.6342 65.3754 78.6342 65.2134 78.9568C65.0514 79.2793 64.5653 79.2793 64.8894 79.6018C65.2134 79.9244 65.6995 79.4406 65.3754 79.9244C65.0514 80.4081 64.7273 80.4081 65.0514 80.7307C65.3754 81.0532 64.8894 82.8271 64.8894 82.9884C64.8894 83.1496 63.4312 98.3084 63.9172 98.6309C64.4033 98.9534 71.2082 99.921 71.6942 98.6309C72.1803 97.3408 71.3702 95.7282 71.3702 95.7282C71.3702 95.7282 73.8005 76.3766 73.1524 75.0864C72.5043 73.7963 70.2361 67.9909 58.0845 64.2818C58.0845 64.2818 54.6821 63.6367 54.6821 63.153C54.6821 62.6692 54.358 59.6052 53.7099 59.4439C53.0618 59.2826 49.3354 59.1214 49.3354 59.1214L44.6368 60.5727L38.1559 59.4439L34.9155 59.7664Z" fill="#2F2E41"/>
<path d="M40.5862 86.8587L39.7761 89.7614C39.7761 89.7614 39.128 94.4381 39.9381 95.5669C40.5745 96.4536 41.7106 97.5393 43.8177 97.7298C44.4082 97.7838 44.9995 97.6354 45.4938 97.3094C45.9881 96.9834 46.3558 96.4992 46.5361 95.937C46.5603 95.8697 46.5754 95.7995 46.581 95.7282C46.581 95.4057 46.095 91.5353 46.095 91.5353L45.2848 87.5037L45.1228 86.3749L40.5862 86.8587Z" fill="#2F2E41"/>
<path d="M64.2413 100.727C64.2413 100.727 63.4312 99.921 63.2691 100.727C63.1071 101.534 62.459 104.92 63.5932 105.081C64.7273 105.243 75.5827 106.855 76.7169 106.21C77.851 105.565 79.9573 104.598 78.6611 104.114C77.365 103.63 73.6385 102.179 73.6385 102.179C73.6385 102.179 71.5322 99.4372 71.2082 99.276C70.8841 99.1147 69.1019 99.4372 68.2918 100.082C67.4817 100.727 64.2413 100.727 64.2413 100.727Z" fill="#2F2E41"/>
<path d="M46.9051 34.7706C49.679 34.7706 51.9277 32.5324 51.9277 29.7714C51.9277 27.0105 49.679 24.7723 46.9051 24.7723C44.1311 24.7723 41.8824 27.0105 41.8824 29.7714C41.8824 32.5324 44.1311 34.7706 46.9051 34.7706Z" fill="#A0616A"/>
<path d="M46.419 41.0599L44.4747 38.9634L42.3196 34.7706C42.3196 34.7706 40.7483 34.2868 40.4242 35.0931C40.1002 35.8994 34.2674 38.4796 34.2674 38.4796C34.2674 38.4796 35.7256 52.0258 35.0775 53.3159C34.4294 54.606 33.2953 59.7664 34.2674 60.2502C35.2395 60.734 39.7761 60.2502 41.2343 60.8953C42.6925 61.5403 46.9051 61.5403 48.0392 60.734C49.1734 59.9277 49.4974 59.2826 50.6315 59.7664C51.5971 60.1783 53.8543 46.0976 54.5041 41.9015C54.5589 41.5491 54.5134 41.1884 54.3729 40.8604C54.2323 40.5324 54.0023 40.25 53.7089 40.0454C52.2551 39.0304 49.6369 37.2814 49.1734 37.5121C48.5253 37.8346 46.419 41.0599 46.419 41.0599Z" fill="#575A89"/>
<path d="M53.3859 40.4148C53.7663 40.5095 54.1086 40.7178 54.3667 41.0117C54.6247 41.3056 54.7863 41.6711 54.8296 42.059L56.1402 53.7997C56.1402 53.7997 52.8998 60.734 51.2796 56.0574C49.6594 51.3807 53.3859 40.4148 53.3859 40.4148Z" fill="#575A89"/>
<path d="M53.0618 54.9285L56.6263 53.9609C56.6263 53.9609 57.2744 58.4763 57.9225 58.4763C58.5705 58.4763 55.6542 61.0565 54.196 60.734C52.7378 60.4115 50.6315 59.2826 50.4695 58.4763C50.3075 57.67 51.9277 54.2835 51.9277 54.2835L53.0618 54.9285Z" fill="#575A89"/>
<path d="M43.1135 31.928C43.455 31.1785 43.3957 30.3041 43.6781 29.5306C43.8293 29.1164 44.0746 28.7426 44.395 28.4383C44.7153 28.1341 45.102 27.9078 45.5248 27.7769C45.9476 27.6461 46.3951 27.6143 46.8323 27.684C47.2695 27.7538 47.6845 27.9232 48.045 28.1791C48.4083 28.4368 48.7724 28.799 49.2157 28.7498C49.6932 28.6968 50.119 28.1667 50.558 28.361C51.0445 28.5763 50.9131 29.4441 51.406 29.6446C51.6654 29.7501 51.972 29.5876 52.1216 29.3518C52.2525 29.1039 52.3238 28.8292 52.33 28.5493C52.398 27.8615 52.4594 27.1335 52.1597 26.5101C52.0337 26.2988 51.9238 26.0783 51.8311 25.8506C51.7787 25.6379 51.7576 25.4187 51.7686 25.2C51.7659 24.3915 51.7066 23.5483 51.2979 22.8497C50.8443 22.0745 50.0058 21.5788 49.1311 21.3625C48.2564 21.1462 47.34 21.1793 46.4419 21.255C44.9572 21.3801 43.409 21.6483 42.2393 22.5669C42.0803 22.6825 41.9435 22.8256 41.8353 22.9893C41.7326 23.1838 41.6601 23.3927 41.6201 23.6088C41.3672 24.6338 40.9881 25.6238 40.4912 26.5562C40.2522 26.9515 40.0569 27.3714 39.9087 27.8085C39.7846 28.2527 39.793 28.7589 40.0527 29.1407C40.2641 29.4515 40.602 29.6172 40.8675 29.8713C41.1306 30.1231 41.2537 30.6074 41.5452 30.798C41.7996 30.9645 42.1044 30.847 42.3639 31.0234C42.697 31.2499 42.7211 31.7465 43.1135 31.928Z" fill="#2F2E41"/>
<path d="M47.2291 43.4788L47.7152 42.5112C47.7152 42.5112 54.8441 44.6077 56.3023 46.5428C56.3023 46.5428 59.8667 44.2851 61.811 44.6077L63.7552 44.9302L57.7605 50.2519L50.1455 49.6068L47.2291 43.4788Z" fill="#F2F2F2"/>
<path d="M46.9051 42.5112L40.2622 51.7032L49.8214 56.3799C49.8214 56.3799 50.7151 56.8637 51.4024 56.3799L57.7605 53.4771L63.7552 44.9302L57.7605 47.9942C57.7605 47.9942 57.1124 46.7041 55.8162 47.3491L46.9051 42.5112Z" fill="#FFD89B"/>
<path d="M57.1124 58.7989L58.4086 55.4123C58.4086 55.4123 61.3249 51.7033 59.7047 49.9294C58.0845 48.1554 56.3023 55.0898 56.3023 55.0898L57.1124 58.7989Z" fill="#A0616A"/>
<path d="M42.1575 58.2584L44.9858 55.9762C44.9858 55.9762 49.3781 54.2241 48.8708 51.8805C48.3634 49.537 43.3263 54.6454 43.3263 54.6454L42.1575 58.2584Z" fill="#A0616A"/>
<path opacity="0.1" d="M35.1586 41.9468H34.9965C34.9965 41.9468 32.4852 38.9634 31.9991 42.995C31.5131 47.0266 29.8929 60.4115 34.1054 60.8953C38.318 61.3791 41.3154 58.8795 41.3154 58.8795C41.3154 58.8795 44.3938 54.2028 43.2596 54.2028C42.7109 54.2028 41.2184 53.9575 39.8572 54.0416C38.405 54.1312 37.1002 54.5384 37.1838 54.1222C37.3458 53.3159 39.6951 43.0756 35.1586 41.9468Z" fill="black"/>
<path d="M34.9155 38.8022L34.2674 38.4796C34.2674 38.4796 31.6751 38.9634 31.189 42.995C30.703 47.0266 29.0828 60.4115 33.2953 60.8953C37.5078 61.3791 43.1786 60.2502 43.1786 60.2502C43.1786 60.2502 44.3127 54.1222 43.1786 54.1222C42.0444 54.1222 36.2117 54.9285 36.3737 54.1222C36.5357 53.3159 39.4521 39.931 34.9155 38.8022Z" fill="#575A89"/>
<path d="M54.7631 56.9444L56.5497 54.2189L57.6795 58.7183L54.7631 60.0084V56.9444Z" fill="#575A89"/>
</svg>
